<svg xmlns="http://www.w3.org/2000/svg" width="64" height="64" viewBox="0 0 64 64" fill="none">
  <title>PITWALL LIGHT gpu icon</title>
  <defs></defs>
  <g fill="none" stroke="#101B2C" stroke-width="2.4" stroke-linecap="round" stroke-linejoin="round"><rect x="8" y="15" width="48" height="34" rx="3"/><circle cx="31" cy="32" r="11"/><path d="M31 21C36 27 36 31 31 32C27 28 27 24 31 21ZM42 32C36 37 32 37 31 32C35 28 39 28 42 32ZM31 43C26 37 26 33 31 32C35 36 35 40 31 43ZM20 32C26 27 30 27 31 32C27 36 23 36 20 32ZM56 23H61M56 41H61"/></g>
</svg>
